<svg width="792" height="156" viewBox="0 0 792 156" fill="none" xmlns="http://www.w3.org/2000/svg">
    <path d="M254.818 74.0909L237.091 75.1818C236.788 73.6667 236.136 72.303 235.136 71.0909C234.136 69.8485 232.818 68.8636 231.182 68.1364C229.576 67.3788 227.652 67 225.409 67C222.409 67 219.879 67.6364 217.818 68.9091C215.758 70.1515 214.727 71.8182 214.727 73.9091C214.727 75.5758 215.394 76.9848 216.727 78.1364C218.061 79.2879 220.348 80.2121 223.591 80.9091L236.227 83.4545C243.015 84.8485 248.076 87.0909 251.409 90.1818C254.742 93.2727 256.409 97.3333 256.409 102.364C256.409 106.939 255.061 110.955 252.364 114.409C249.697 117.864 246.03 120.561 241.364 122.5C236.727 124.409 231.379 125.364 225.318 125.364C216.076 125.364 208.712 123.439 203.227 119.591C197.773 115.712 194.576 110.439 193.636 103.773L212.682 102.773C213.258 105.591 214.652 107.742 216.864 109.227C219.076 110.682 221.909 111.409 225.364 111.409C228.758 111.409 231.485 110.758 233.545 109.455C235.636 108.121 236.697 106.409 236.727 104.318C236.697 102.561 235.955 101.121 234.5 100C233.045 98.8485 230.803 97.9697 227.773 97.3636L215.682 94.9545C208.864 93.5909 203.788 91.2273 200.455 87.8636C197.152 84.5 195.5 80.2121 195.5 75C195.5 70.5151 196.712 66.6515 199.136 63.4091C201.591 60.1667 205.03 57.6667 209.455 55.9091C213.909 54.1515 219.121 53.2727 225.091 53.2727C233.909 53.2727 240.848 55.1364 245.909 58.8636C251 62.5909 253.97 67.6667 254.818 74.0909ZM305.739 54.1818V68.7273H263.693V54.1818H305.739ZM273.239 37.4545H292.602V102.545C292.602 104.333 292.875 105.727 293.42 106.727C293.966 107.697 294.723 108.379 295.693 108.773C296.693 109.167 297.845 109.364 299.148 109.364C300.057 109.364 300.966 109.288 301.875 109.136C302.784 108.955 303.481 108.818 303.966 108.727L307.011 123.136C306.042 123.439 304.678 123.788 302.92 124.182C301.163 124.606 299.027 124.864 296.511 124.955C291.845 125.136 287.754 124.515 284.239 123.091C280.754 121.667 278.042 119.455 276.102 116.455C274.163 113.455 273.208 109.667 273.239 105.091V37.4545ZM338.261 125.318C333.807 125.318 329.837 124.545 326.352 123C322.867 121.424 320.11 119.106 318.08 116.045C316.08 112.955 315.08 109.106 315.08 104.5C315.08 100.621 315.792 97.3636 317.216 94.7273C318.64 92.0909 320.58 89.9697 323.034 88.3636C325.489 86.7576 328.277 85.5455 331.398 84.7273C334.549 83.9091 337.852 83.3333 341.307 83C345.367 82.5758 348.64 82.1818 351.125 81.8182C353.61 81.4242 355.413 80.8485 356.534 80.0909C357.655 79.3333 358.216 78.2121 358.216 76.7273V76.4545C358.216 73.5758 357.307 71.3485 355.489 69.7727C353.701 68.197 351.155 67.4091 347.852 67.4091C344.367 67.4091 341.595 68.1818 339.534 69.7273C337.473 71.2424 336.11 73.1515 335.443 75.4545L317.534 74C318.443 69.7576 320.231 66.0909 322.898 63C325.564 59.8788 329.004 57.4848 333.216 55.8182C337.458 54.1212 342.367 53.2727 347.943 53.2727C351.822 53.2727 355.534 53.7273 359.08 54.6364C362.655 55.5455 365.822 56.9545 368.58 58.8636C371.367 60.7727 373.564 63.2273 375.17 66.2273C376.777 69.197 377.58 72.7576 377.58 76.9091V124H359.216V114.318H358.67C357.549 116.5 356.049 118.424 354.17 120.091C352.292 121.727 350.034 123.015 347.398 123.955C344.761 124.864 341.716 125.318 338.261 125.318ZM343.807 111.955C346.655 111.955 349.17 111.394 351.352 110.273C353.534 109.121 355.246 107.576 356.489 105.636C357.731 103.697 358.352 101.5 358.352 99.0455V91.6364C357.746 92.0303 356.913 92.3939 355.852 92.7273C354.822 93.0303 353.655 93.3182 352.352 93.5909C351.049 93.8333 349.746 94.0606 348.443 94.2727C347.14 94.4545 345.958 94.6212 344.898 94.7727C342.625 95.1061 340.64 95.6364 338.943 96.3636C337.246 97.0909 335.928 98.0758 334.989 99.3182C334.049 100.53 333.58 102.045 333.58 103.864C333.58 106.5 334.534 108.515 336.443 109.909C338.383 111.273 340.837 111.955 343.807 111.955ZM392.602 124V54.1818H411.375V66.3636H412.102C413.375 62.0303 415.511 58.7576 418.511 56.5455C421.511 54.303 424.966 53.1818 428.875 53.1818C429.845 53.1818 430.89 53.2424 432.011 53.3636C433.133 53.4848 434.117 53.6515 434.966 53.8636V71.0455C434.057 70.7727 432.799 70.5303 431.193 70.3182C429.587 70.1061 428.117 70 426.784 70C423.936 70 421.39 70.6212 419.148 71.8636C416.936 73.0758 415.178 74.7727 413.875 76.9545C412.602 79.1364 411.966 81.6515 411.966 84.5V124H392.602ZM485.614 54.1818V68.7273H443.568V54.1818H485.614ZM453.114 37.4545H472.477V102.545C472.477 104.333 472.75 105.727 473.295 106.727C473.841 107.697 474.598 108.379 475.568 108.773C476.568 109.167 477.72 109.364 479.023 109.364C479.932 109.364 480.841 109.288 481.75 109.136C482.659 108.955 483.356 108.818 483.841 108.727L486.886 123.136C485.917 123.439 484.553 123.788 482.795 124.182C481.038 124.606 478.902 124.864 476.386 124.955C471.72 125.136 467.629 124.515 464.114 123.091C460.629 121.667 457.917 119.455 455.977 116.455C454.038 113.455 453.083 109.667 453.114 105.091V37.4545ZM500.091 124V30.9091H519.455V65.9091H520.045C520.894 64.0303 522.121 62.1212 523.727 60.1818C525.364 58.2121 527.485 56.5758 530.091 55.2727C532.727 53.9394 536 53.2727 539.909 53.2727C545 53.2727 549.697 54.6061 554 57.2727C558.303 59.9091 561.742 63.8939 564.318 69.2273C566.894 74.5303 568.182 81.1818 568.182 89.1818C568.182 96.9697 566.924 103.545 564.409 108.909C561.924 114.242 558.53 118.288 554.227 121.045C549.955 123.773 545.167 125.136 539.864 125.136C536.106 125.136 532.909 124.515 530.273 123.273C527.667 122.03 525.53 120.47 523.864 118.591C522.197 116.682 520.924 114.758 520.045 112.818H519.182V124H500.091ZM519.045 89.0909C519.045 93.2424 519.621 96.8636 520.773 99.9545C521.924 103.045 523.591 105.455 525.773 107.182C527.955 108.879 530.606 109.727 533.727 109.727C536.879 109.727 539.545 108.864 541.727 107.136C543.909 105.379 545.561 102.955 546.682 99.8636C547.833 96.7424 548.409 93.1515 548.409 89.0909C548.409 85.0606 547.848 81.5151 546.727 78.4545C545.606 75.3939 543.955 73 541.773 71.2727C539.591 69.5455 536.909 68.6818 533.727 68.6818C530.576 68.6818 527.909 69.5151 525.727 71.1818C523.576 72.8485 521.924 75.2121 520.773 78.2727C519.621 81.3333 519.045 84.9394 519.045 89.0909ZM601.011 125.318C596.557 125.318 592.587 124.545 589.102 123C585.617 121.424 582.86 119.106 580.83 116.045C578.83 112.955 577.83 109.106 577.83 104.5C577.83 100.621 578.542 97.3636 579.966 94.7273C581.39 92.0909 583.33 89.9697 585.784 88.3636C588.239 86.7576 591.027 85.5455 594.148 84.7273C597.299 83.9091 600.602 83.3333 604.057 83C608.117 82.5758 611.39 82.1818 613.875 81.8182C616.36 81.4242 618.163 80.8485 619.284 80.0909C620.405 79.3333 620.966 78.2121 620.966 76.7273V76.4545C620.966 73.5758 620.057 71.3485 618.239 69.7727C616.451 68.197 613.905 67.4091 610.602 67.4091C607.117 67.4091 604.345 68.1818 602.284 69.7273C600.223 71.2424 598.86 73.1515 598.193 75.4545L580.284 74C581.193 69.7576 582.981 66.0909 585.648 63C588.314 59.8788 591.754 57.4848 595.966 55.8182C600.208 54.1212 605.117 53.2727 610.693 53.2727C614.572 53.2727 618.284 53.7273 621.83 54.6364C625.405 55.5455 628.572 56.9545 631.33 58.8636C634.117 60.7727 636.314 63.2273 637.92 66.2273C639.527 69.197 640.33 72.7576 640.33 76.9091V124H621.966V114.318H621.42C620.299 116.5 618.799 118.424 616.92 120.091C615.042 121.727 612.784 123.015 610.148 123.955C607.511 124.864 604.466 125.318 601.011 125.318ZM606.557 111.955C609.405 111.955 611.92 111.394 614.102 110.273C616.284 109.121 617.996 107.576 619.239 105.636C620.481 103.697 621.102 101.5 621.102 99.0455V91.6364C620.496 92.0303 619.663 92.3939 618.602 92.7273C617.572 93.0303 616.405 93.3182 615.102 93.5909C613.799 93.8333 612.496 94.0606 611.193 94.2727C609.89 94.4545 608.708 94.6212 607.648 94.7727C605.375 95.1061 603.39 95.6364 601.693 96.3636C599.996 97.0909 598.678 98.0758 597.739 99.3182C596.799 100.53 596.33 102.045 596.33 103.864C596.33 106.5 597.284 108.515 599.193 109.909C601.133 111.273 603.587 111.955 606.557 111.955ZM713.443 74.0909L695.716 75.1818C695.413 73.6667 694.761 72.303 693.761 71.0909C692.761 69.8485 691.443 68.8636 689.807 68.1364C688.201 67.3788 686.277 67 684.034 67C681.034 67 678.504 67.6364 676.443 68.9091C674.383 70.1515 673.352 71.8182 673.352 73.9091C673.352 75.5758 674.019 76.9848 675.352 78.1364C676.686 79.2879 678.973 80.2121 682.216 80.9091L694.852 83.4545C701.64 84.8485 706.701 87.0909 710.034 90.1818C713.367 93.2727 715.034 97.3333 715.034 102.364C715.034 106.939 713.686 110.955 710.989 114.409C708.322 117.864 704.655 120.561 699.989 122.5C695.352 124.409 690.004 125.364 683.943 125.364C674.701 125.364 667.337 123.439 661.852 119.591C656.398 115.712 653.201 110.439 652.261 103.773L671.307 102.773C671.883 105.591 673.277 107.742 675.489 109.227C677.701 110.682 680.534 111.409 683.989 111.409C687.383 111.409 690.11 110.758 692.17 109.455C694.261 108.121 695.322 106.409 695.352 104.318C695.322 102.561 694.58 101.121 693.125 100C691.67 98.8485 689.428 97.9697 686.398 97.3636L674.307 94.9545C667.489 93.5909 662.413 91.2273 659.08 87.8636C655.777 84.5 654.125 80.2121 654.125 75C654.125 70.5151 655.337 66.6515 657.761 63.4091C660.216 60.1667 663.655 57.6667 668.08 55.9091C672.534 54.1515 677.746 53.2727 683.716 53.2727C692.534 53.2727 699.473 55.1364 704.534 58.8636C709.625 62.5909 712.595 67.6667 713.443 74.0909ZM759.045 125.364C751.864 125.364 745.682 123.909 740.5 121C735.348 118.061 731.379 113.909 728.591 108.545C725.803 103.152 724.409 96.7727 724.409 89.4091C724.409 82.2273 725.803 75.9242 728.591 70.5C731.379 65.0758 735.303 60.8485 740.364 57.8182C745.455 54.7879 751.424 53.2727 758.273 53.2727C762.879 53.2727 767.167 54.0152 771.136 55.5C775.136 56.9545 778.621 59.1515 781.591 62.0909C784.591 65.0303 786.924 68.7273 788.591 73.1818C790.258 77.6061 791.091 82.7879 791.091 88.7273V94.0455H732.136V82.0455H772.864C772.864 79.2576 772.258 76.7879 771.045 74.6364C769.833 72.4848 768.152 70.803 766 69.5909C763.879 68.3485 761.409 67.7273 758.591 67.7273C755.652 67.7273 753.045 68.4091 750.773 69.7727C748.53 71.1061 746.773 72.9091 745.5 75.1818C744.227 77.4242 743.576 79.9242 743.545 82.6818V94.0909C743.545 97.5455 744.182 100.53 745.455 103.045C746.758 105.561 748.591 107.5 750.955 108.864C753.318 110.227 756.121 110.909 759.364 110.909C761.515 110.909 763.485 110.606 765.273 110C767.061 109.394 768.591 108.485 769.864 107.273C771.136 106.061 772.106 104.576 772.773 102.818L790.682 104C789.773 108.303 787.909 112.061 785.091 115.273C782.303 118.455 778.697 120.939 774.273 122.727C769.879 124.485 764.803 125.364 759.045 125.364Z" fill="currentColor"/>
    <path d="M0 115.925L79 76.425L158 115.92L79 155.42L0 115.925Z" fill="var(--vivid-blue)"/>
    <path d="M0 91.4949L79 52L158 91.5L79 130.99L0 91.4949Z" fill="var(--vivid-pink)"/>
    <path d="M99 96L108 67L158 91.5L99 96Z" fill="url(#paint0_linear_0_1)"/>
    <path d="M80.5 97.5L79.0001 130.581L4.90427e-05 91.0813L80.5 97.5Z" fill="url(#paint1_linear_0_1)"/>
    <path d="M0 64.175L79 24.675L158 64.1699L79 103.67L0 64.175Z" fill="var(--vivid-blue)"/>
    <path d="M80 74L107 39L158 64L80 74Z" fill="url(#paint2_linear_0_1)"/>
    <path d="M0 39.4949L79 0L158 39.5L79 78.9899L0 39.4949Z" fill="var(--vivid-pink)"/>
    <path d="M79 31V0L157.5 39.5L79 31Z" fill="url(#paint3_linear_0_1)"/>
    <path d="M79.0001 31L79.0001 79L6.9e-06 39.5L79.0001 31Z" fill="url(#paint4_linear_0_1)"/>
    <path d="M79.0001 74L79 103.581L-1.90802e-05 64.0811L79.0001 74Z" fill="url(#paint5_linear_0_1)"/>
    <path d="M41 69.5V60L79 78.5L117 60V69.5L79 88L41 69.5Z" fill="#D9D9D9"/>
    <path d="M41 94.5V84.5L79 103.5L117 84.5V94.5L79 113L41 94.5Z" fill="#D9D9D9"/>
    <defs>
        <linearGradient id="paint0_linear_0_1" x1="133.5" y1="43.5" x2="115.5" y2="102" gradientUnits="userSpaceOnUse">
            <stop/>
            <stop offset="1" stop-color="#E140DB" stop-opacity="0"/>
        </linearGradient>
        <linearGradient id="paint1_linear_0_1" x1="16.5" y1="153" x2="74.5076" y2="84.0742" gradientUnits="userSpaceOnUse">
            <stop/>
            <stop offset="1" stop-color="#CF4BCA" stop-opacity="0"/>
        </linearGradient>
        <linearGradient id="paint2_linear_0_1" x1="146.5" y1="-13" x2="114.5" y2="74" gradientUnits="userSpaceOnUse">
            <stop/>
            <stop offset="1" stop-color="#E140DB" stop-opacity="0"/>
        </linearGradient>
        <linearGradient id="paint3_linear_0_1" x1="116" y1="-28" x2="80.5" y2="31.5" gradientUnits="userSpaceOnUse">
            <stop/>
            <stop offset="1" stop-color="#E140DB" stop-opacity="0"/>
        </linearGradient>
        <linearGradient id="paint4_linear_0_1" x1="22.5" y1="103" x2="74.5076" y2="32.4931" gradientUnits="userSpaceOnUse">
            <stop/>
            <stop offset="1" stop-color="#CF4BCA" stop-opacity="0"/>
        </linearGradient>
        <linearGradient id="paint5_linear_0_1" x1="-76.5" y1="193.081" x2="74.5076" y2="57.0743" gradientUnits="userSpaceOnUse">
            <stop offset="0.402187"/>
            <stop offset="1" stop-color="#CF4BCA" stop-opacity="0"/>
        </linearGradient>
    </defs>
</svg>
